<svg width="22" height="38" viewBox="0 0 22 38" fill="none" xmlns="http://www.w3.org/2000/svg">
<path d="M21.7538 21.2866C21.7538 23.7018 21.806 26.1169 21.7373 28.5296C21.6769 30.6444 20.7375 32.3472 19.1032 33.6206C18.845 33.8216 18.7544 34.0277 18.7434 34.3578C18.7241 34.9064 18.7296 35.4946 18.5401 35.9936C18.1611 36.9939 17.359 37.5126 16.3208 37.5176C12.6978 37.535 9.07489 37.5375 5.4547 37.5176C4.06485 37.5102 3.04307 36.4801 3.04582 35.0081C3.04582 34.2386 2.83432 33.7571 2.25201 33.2507C0.702857 31.8979 0.00244154 30.0934 0.00244154 27.9984C0.00244154 23.4957 -0.00305192 18.9931 0.00244154 14.4879C0.00793499 11.1618 2.00481 8.52817 5.13608 7.70657C5.408 7.63458 5.44371 7.49558 5.44096 7.24985C5.43272 5.52721 5.43547 3.80457 5.43822 2.08193C5.43822 0.776304 6.18258 0.00434382 7.44058 0.00186164C9.73685 -0.000620546 12.0331 -0.000620546 14.3321 0.00186164C15.5929 0.00186164 16.3263 0.768857 16.3317 2.08441C16.3372 3.80705 16.34 5.52969 16.3263 7.25233C16.3263 7.53778 16.4087 7.64947 16.6778 7.71649C19.6113 8.44874 21.6576 11.055 21.7593 14.1652C21.7593 14.2471 21.7675 14.329 21.7675 14.4085C21.7675 16.6995 21.7675 18.9931 21.7675 21.2841C21.762 21.2841 21.7565 21.2841 21.751 21.2841L21.7538 21.2866ZM20.5672 21.2469C20.5672 19.0502 20.5727 16.8534 20.5645 14.6567C20.5645 14.2521 20.537 13.8425 20.4793 13.4429C20.1305 10.9533 17.9413 8.85085 15.5105 8.79625C12.533 8.72923 9.55556 8.76894 6.57811 8.76646C6.3309 8.76646 6.07821 8.78383 5.83375 8.831C3.01835 9.36218 1.20551 11.6086 1.20002 14.5773C1.19452 19.0253 1.19727 23.4709 1.20002 27.919C1.20002 28.2963 1.21924 28.681 1.28791 29.0534C1.80979 31.8756 3.97146 33.7472 6.7539 33.7645C9.50887 33.7819 12.2638 33.772 15.0188 33.7645C15.8538 33.7645 16.6696 33.6231 17.4194 33.2259C19.5125 32.1213 20.5397 30.3242 20.559 27.914C20.5754 25.69 20.5617 23.466 20.5617 21.2444L20.5672 21.2469ZM6.67425 7.47821H15.0985C15.1094 7.33424 15.1232 7.21758 15.1232 7.09843C15.1232 5.4304 15.1259 3.76237 15.1232 2.09435C15.1232 1.45891 14.9117 1.24792 14.2854 1.24792C12.0276 1.24544 9.77256 1.24544 7.51474 1.24792C6.84454 1.24792 6.65502 1.45146 6.65502 2.15392C6.65502 3.79464 6.65502 5.43537 6.65502 7.07609C6.65502 7.20765 6.66601 7.3392 6.67425 7.47821ZM17.5183 34.7028C16.6256 34.8095 15.7604 34.9907 14.8925 35.0032C12.2171 35.0429 9.53634 35.0478 6.86102 34.9982C6.04799 34.9833 5.23771 34.7525 4.42467 34.6209C4.37523 34.6135 4.32854 34.6135 4.2791 34.6085C4.14451 35.6833 4.63068 36.2765 5.64422 36.2765C9.13531 36.279 12.6264 36.279 16.1175 36.2765C17.131 36.2765 17.6255 35.6858 17.5156 34.7003L17.5183 34.7028Z" fill="#23A6F0"/>
<path d="M10.8765 6.26194C10.2997 6.26194 9.72287 6.27187 9.14606 6.26194C8.34951 6.24456 7.88531 5.75309 7.87158 4.93149C7.86608 4.5393 7.86059 4.14464 7.87158 3.75245C7.89355 3.04006 8.34676 2.5337 9.0307 2.52129C10.2612 2.49895 11.4945 2.50143 12.725 2.52129C13.398 2.53122 13.854 3.00531 13.8897 3.70033C13.9144 4.14464 13.9144 4.59391 13.8924 5.0407C13.8594 5.77543 13.3952 6.2396 12.6784 6.26194C12.0768 6.27931 11.4725 6.26442 10.871 6.26442L10.8765 6.26194ZM9.08838 4.96376H12.6619V3.78224H9.08838V4.96376Z" fill="#23A6F0"/>
</svg>
